<svg
    width="38"
    height="35"
    viewBox="0 0 38 35"
    fill="none"
    xmlns="http://www.w3.org/2000/svg"
>
    <ellipse
        cx="18.9276"
        cy="17.5"
        rx="18.7479"
        ry="17.5"
        fill="#0052FF"
    />
    <path
        fillRule="evenodd"
        clipRule="evenodd"
        d="M18.9276 7C25.1404 7 30.1763 11.7007 30.1763 17.5C30.1763 23.2993 25.1404 28 18.9276 28C12.7147 28 7.67883 23.2993 7.67883 17.5C7.67883 11.7007 12.7147 7 18.9276 7Z"
        fill="white"
    />
    <path
        fillRule="evenodd"
        clipRule="evenodd"
        d="M16.1571 14.144H21.6973C22.1533 14.144 22.522 14.5154 22.522 14.9718V20.0273C22.522 20.485 22.1521 20.8551 21.6973 20.8551H16.1571C15.7011 20.8551 15.3324 20.4838 15.3324 20.0273V14.9718C15.3324 14.5154 15.7023 14.144 16.1571 14.144Z"
        fill="#0052FF"
    />
</svg>