<svg
    width="38"
    height="35"
    viewBox="0 0 38 35"
    fill="none"
    xmlns="http://www.w3.org/2000/svg"
>
    <path
        d="M32.8701 4.04419L20.7858 12.457L23.0205 7.49357L32.8701 4.04419Z"
        fill="#E2761B"
    />
    <path
        d="M4.97323 4.04419L16.9604 12.5367L14.835 7.49357L4.97323 4.04419ZM28.5224 23.5451L25.304 28.1671L32.1902 29.943L34.1699 23.6476L28.5224 23.5451ZM3.698 23.6476L5.66549 29.943L12.5517 28.1671L9.33329 23.5451L3.698 23.6476Z"
        fill="#E4761B"
    />
    <path
        d="M12.1624 15.7358L10.2435 18.4566L17.0812 18.7412L16.8383 11.8539L12.1624 15.7358ZM25.6799 15.7358L20.9433 11.7742L20.7854 18.7412L27.6109 18.4566L25.6799 15.7358ZM12.5511 28.1672L16.6561 26.2889L13.1098 23.6933L12.5511 28.1672ZM21.1862 26.2889L25.3034 28.1672L24.7325 23.6933L21.1862 26.2889Z"
        fill="#E4761B"
    />
    <path
        d="M25.3039 28.1669L21.1867 26.2886L21.5147 28.8045L21.4782 29.8632L25.3039 28.1669ZM12.5516 28.1669L16.3773 29.8632L16.353 28.8045L16.6567 26.2886L12.5516 28.1669Z"
        fill="#D7C1B3"
    />
    <path
        d="M16.4376 22.0311L13.0127 21.0862L15.4296 20.0503L16.4376 22.0311ZM21.4049 22.0311L22.4129 20.0503L24.8419 21.0862L21.4049 22.0311Z"
        fill="#233447"
    />
    <path
        d="M12.5514 28.1674L13.1344 23.5455L9.33301 23.6479L12.5514 28.1674ZM24.7208 23.5455L25.3037 28.1674L28.5221 23.6479L24.7208 23.5455ZM27.6113 18.4568L20.7858 18.7414L21.4173 22.0314L22.4253 20.0506L24.8544 21.0865L27.6113 18.4568ZM13.0129 21.0865L15.442 20.0506L16.4378 22.0314L17.0815 18.7414L10.2439 18.4568L13.0129 21.0865Z"
        fill="#CD6116"
    />
    <path
        d="M10.2435 18.4568L13.1098 23.6935L13.0126 21.0865L10.2435 18.4568ZM24.854 21.0865L24.7325 23.6935L27.6109 18.4568L24.854 21.0865ZM17.0812 18.7414L16.4375 22.0314L17.2391 25.9134L17.4212 20.8019L17.0812 18.7414ZM20.7854 18.7414L20.4575 20.7905L20.6032 25.9134L21.417 22.0314L20.7854 18.7414Z"
        fill="#E4751F"
    />
    <path
        d="M21.4171 22.0311L20.6033 25.913L21.1863 26.2887L24.7326 23.6931L24.8541 21.0862L21.4171 22.0311ZM13.0127 21.0862L13.1099 23.6931L16.6562 26.2887L17.2392 25.913L16.4376 22.0311L13.0127 21.0862Z"
        fill="#F6851B"
    />
    <path
        d="M21.4782 29.8632L21.5147 28.8045L21.211 28.5541H16.6324L16.353 28.8045L16.3773 29.8632L12.5516 28.167L13.8876 29.1916L16.5959 30.9561H21.2475L23.968 29.1916L25.3039 28.167L21.4782 29.8632Z"
        fill="#C0AD9E"
    />
    <path
        d="M21.1861 26.2888L20.6032 25.9131H17.239L16.656 26.2888L16.3524 28.8046L16.6318 28.5542H21.2104L21.5141 28.8046L21.1861 26.2888Z"
        fill="#161616"
    />
    <path
        d="M33.38 13.0035L34.4123 8.35876L32.8699 4.04419L21.1864 12.1724L25.68 15.7356L32.0319 17.4774L33.4407 15.9406L32.8335 15.5307L33.8051 14.6997L33.0521 14.1533L34.0237 13.4588L33.38 13.0035ZM3.4425 8.35876L4.47483 13.0035L3.819 13.4588L4.7906 14.1533L4.04976 14.6997L5.02136 15.5307L4.41411 15.9406L5.81079 17.4774L12.1626 15.7356L16.6563 12.1724L4.97278 4.04419L3.4425 8.35876Z"
        fill="#763D16"
    />
    <path
        d="M32.0322 17.4775L25.6804 15.7357L27.6114 18.4565L24.7331 23.6932L28.5223 23.6477H34.1698L32.0322 17.4775ZM12.163 15.7357L5.81111 17.4775L3.69788 23.6477H9.33317L13.1103 23.6932L10.244 18.4565L12.163 15.7357ZM20.7859 18.7411L21.1867 12.1725L23.0328 7.49365H14.8349L16.6566 12.1725L17.0817 18.7411L17.2274 20.813L17.2396 25.9131H20.6038L20.628 20.813L20.7859 18.7411Z"
        fill="#F6851B"
    />
</svg>