<svg
    width="38"
    height="35"
    viewBox="0 0 38 35"
    fill="none"
    xmlns="http://www.w3.org/2000/svg"
>
    <ellipse
        cx="18.9276"
        cy="17.5"
        rx="18.7479"
        ry="17.5"
        fill="#3B99FC"
    />
    <path
        d="M12.3088 13.5937C15.9641 10.253 21.8907 10.253 25.5461 13.5937L25.986 13.9957C26.1688 14.1628 26.1688 14.4336 25.986 14.6006L24.4811 15.976C24.3897 16.0595 24.2415 16.0595 24.1501 15.976L23.5447 15.4227C20.9947 13.0921 16.8602 13.0921 14.3101 15.4227L13.6617 16.0152C13.5704 16.0987 13.4222 16.0987 13.3308 16.0152L11.8259 14.6398C11.6431 14.4728 11.6431 14.202 11.8259 14.035L12.3088 13.5937ZM28.6584 16.4381L29.9977 17.6621C30.1805 17.8292 30.1805 18.1 29.9977 18.267L23.9584 23.7866C23.7756 23.9536 23.4793 23.9536 23.2965 23.7866C23.2965 23.7866 23.2965 23.7866 23.2965 23.7866L19.0102 19.8692C18.9645 19.8274 18.8904 19.8274 18.8447 19.8692C18.8447 19.8692 18.8447 19.8692 18.8447 19.8692L14.5584 23.7866C14.3757 23.9536 14.0793 23.9536 13.8966 23.7866C13.8966 23.7866 13.8966 23.7866 13.8966 23.7866L7.85705 18.267C7.67428 18.0999 7.67428 17.8291 7.85705 17.6621L9.19643 16.438C9.3792 16.271 9.67552 16.271 9.85829 16.438L14.1447 20.3554C14.1904 20.3972 14.2645 20.3972 14.3102 20.3554C14.3102 20.3554 14.3102 20.3554 14.3102 20.3554L18.5964 16.438C18.7792 16.271 19.0755 16.2709 19.2583 16.438C19.2583 16.438 19.2583 16.438 19.2583 16.438L23.5447 20.3554C23.5904 20.3972 23.6645 20.3972 23.7101 20.3554L27.9965 16.4381C28.1793 16.271 28.4756 16.271 28.6584 16.4381Z"
        fill="white"
    />
</svg>